<svg xmlns="http://www.w3.org/2000/svg" xmlns:xlink="http://www.w3.org/1999/xlink" version="1.1" x="0px" y="0px" viewBox="0 0 100 125" enable-background="new 0 0 100 100" xml:space="preserve"><path fill-rule="evenodd" clip-rule="evenodd" d="M81.295,48.36c-5.227,1.273-10.378,2.439-15.935-0.01  c1.12,0,1.82,0.037,2.517-0.005c5.452-0.335,9.091-3.281,11.412-8.037c1.399-2.866,3.565-4.387,6.809-4.283  c1.512,0.048,2.52,0.777,2.853,2.224c0.28,1.222,0.48,2.486,0.51,3.737c0.089,4.079,0.086,8.159,0.107,12.24  c0.002,0.484-0.024,0.974-0.091,1.452c-0.464,3.356-1.983,4.884-5.361,5.3c-0.958,0.118-1.955,0.177-2.905,0.052  c-2.379-0.311-4.145,0.704-5.646,2.383c-2.499,2.796-4.032,6.156-5.516,9.541c-0.213,0.479-0.415,0.963-0.689,1.6  c-0.236-3.366,1.835-12.489,3.36-15.139c0.939-1.636,2.271-2.684,4.103-3.249C80.84,54.926,82.121,52.665,81.295,48.36z"/><path fill-rule="evenodd" clip-rule="evenodd" d="M24.833,50.287c-2.147-0.465-4.294-0.93-6.502-1.408  c-0.808,2.087,0.062,4.937,2.184,6.271c0.57,0.358,1.188,0.731,1.833,0.865c3.098,0.644,4.802,2.781,5.55,5.577  c1.122,4.195,1.93,8.474,2.872,12.717c-0.146,0.04-0.293,0.08-0.439,0.118c-0.896-1.897-1.665-3.873-2.719-5.679  c-1.167-1.999-2.491-3.93-3.943-5.73c-1.246-1.545-2.985-2.124-5.058-2.004c-6.262,0.364-8.452-1.564-8.417-7.794  c0.021-3.661,0.371-7.369,1.063-10.961c0.342-1.777,1.491-3.649,2.807-4.933c2.64-2.572,5.494-1.542,6.362,2.039  c0.239,0.986,0.336,2.009,0.563,3c0.755,3.29,2.692,4.925,6.057,4.957c1.489,0.015,2.98-0.242,4.601-0.387  c-1.956,1.921-4.354,2.771-6.869,3.395L24.833,50.287z"/><path fill-rule="evenodd" clip-rule="evenodd" d="M24.779,50.331c16.02,0.005,32.039,0.005,48.058,0.045  c0.446,0.003,0.891,0.444,1.337,0.681c-0.428,0.211-0.854,0.603-1.281,0.604c-15.683,0.031-31.364,0.025-47.045,0.031  c-1.031,0.002-1.705-0.196-1.013-1.406C24.833,50.287,24.779,50.331,24.779,50.331z"/><path fill-rule="evenodd" clip-rule="evenodd" d="M24.239,38.066c-2.434,0.014-4.362-1.888-4.354-4.297  c0.008-2.392,1.977-4.34,4.368-4.32c2.335,0.021,4.246,1.923,4.28,4.26C28.567,36.121,26.666,38.051,24.239,38.066z"/><path fill-rule="evenodd" clip-rule="evenodd" d="M85.724,31.027c0.011,2.394-1.945,4.356-4.333,4.346  c-2.4-0.009-4.34-1.973-4.313-4.365c0.028-2.338,1.919-4.239,4.258-4.279C83.714,26.689,85.713,28.648,85.724,31.027z"/><path fill-rule="evenodd" clip-rule="evenodd" d="M64.121,47.939c0,0.633,0,1.109,0,1.694c-9.829,0-19.61,0-29.475,0  c0-0.547,0-1.058,0-1.694C44.453,47.939,54.229,47.939,64.121,47.939z"/><path fill-rule="evenodd" clip-rule="evenodd" d="M79.758,37.833c-0.712,1.316-1.302,2.408-1.961,3.624  C72.4,39.159,66.9,37.516,61.043,37.253C67.258,35.229,73.356,37.411,79.758,37.833z"/><path fill-rule="evenodd" clip-rule="evenodd" d="M84.749,63.65c-1.406,0-2.815,0.047-4.216-0.03  c-0.38-0.02-0.738-0.411-1.107-0.633c0.371-0.22,0.738-0.623,1.114-0.632c2.47-0.05,4.946-0.07,7.414,0.013  c1.599,0.056,2.565-0.534,3.312-1.999c1.824-3.581,3.804-7.084,5.771-10.589c0.205-0.365,0.75-0.539,1.136-0.8  c0.007,0.463,0.184,1.016-0.006,1.374c-2.05,3.849-4.159,7.665-6.249,11.491c-0.641,1.169-1.623,1.766-2.954,1.773  c-1.403,0.01-2.809,0.001-4.215,0.001C84.749,63.632,84.749,63.641,84.749,63.65z"/><path fill-rule="evenodd" clip-rule="evenodd" d="M15.644,63.645c-1.312,0-2.624,0.023-3.935-0.007  c-1.373-0.031-2.395-0.653-3.06-1.881c-2.037-3.758-4.109-7.496-6.113-11.271c-0.214-0.401-0.067-0.997-0.086-1.504  c0.411,0.307,0.978,0.522,1.207,0.93c1.974,3.514,3.926,7.039,5.795,10.609c0.663,1.268,1.48,1.886,2.962,1.828  c2.523-0.096,5.053-0.056,7.578,0.006c0.403,0.012,0.794,0.451,1.191,0.691c-0.389,0.201-0.77,0.558-1.167,0.578  c-1.454,0.069-2.914,0.027-4.371,0.027C15.644,63.649,15.644,63.647,15.644,63.645z"/><path fill-rule="evenodd" clip-rule="evenodd" d="M57.157,52.257c0.22,0.438,0.507,0.856,0.647,1.317  c1.852,6.18,3.683,12.362,5.519,18.547c0.291,0.977,0.638,1.943,0.836,2.938c0.084,0.424-0.149,0.909-0.238,1.366  c-0.338-0.322-0.862-0.586-0.984-0.977c-1.108-3.565-2.146-7.153-3.207-10.733c-1.075-3.626-2.173-7.248-3.213-10.886  c-0.132-0.459,0.024-1.001,0.047-1.505C56.762,52.303,56.959,52.278,57.157,52.257z"/><path fill-rule="evenodd" clip-rule="evenodd" d="M34.35,75.702c0.664-2.233,1.258-4.231,1.852-6.229  c1.545-5.206,3.09-10.413,4.635-15.618c0.097-0.325,0.117-0.716,0.317-0.957c0.204-0.245,0.585-0.344,0.89-0.507  c0.114,0.286,0.343,0.58,0.319,0.854c-0.04,0.475-0.23,0.938-0.368,1.401c-2.014,6.786-4.03,13.573-6.046,20.358  c-0.083,0.279-0.098,0.613-0.269,0.819c-0.213,0.258-0.556,0.407-0.842,0.603C34.647,76.144,34.457,75.86,34.35,75.702z"/><path fill-rule="evenodd" clip-rule="evenodd" d="M45.687,40.463c0.272-0.064,0.798-0.25,1.329-0.269  c0.121-0.003,0.311,0.562,0.375,0.884c0.053,0.267-0.163,0.665-0.035,0.828c1.257,1.605,0.24,3.587,1.061,5.4  c-1.208,0-2.275,0-3.461,0c0.649-1.655-0.396-3.527,0.829-5.13C45.99,41.905,45.749,41.292,45.687,40.463z"/><path fill-rule="evenodd" clip-rule="evenodd" d="M53.375,40.497c0.24-0.077,0.675-0.324,1.105-0.317  c0.312,0.006,0.619,0.345,0.929,0.536c-0.908,1.349,0.465,2.288,0.589,3.433c0.11,1.022-0.132,2.084-0.227,3.216  c-0.872,0-1.921,0-3.102,0c0.685-1.77-0.342-3.71,0.924-5.347C53.766,41.793,53.492,41.224,53.375,40.497z"/><path fill-rule="evenodd" clip-rule="evenodd" d="M77.68,75.733c1.031-3.67,1.974-7.085,2.979-10.481  c0.084-0.284,0.602-0.438,0.917-0.653c0.105,0.335,0.372,0.712,0.295,0.996c-0.925,3.42-1.888,6.829-2.893,10.227  c-0.077,0.263-0.544,0.407-0.829,0.606C77.959,76.148,77.77,75.869,77.68,75.733z"/><path fill-rule="evenodd" clip-rule="evenodd" d="M22.959,75.765c-0.135,0.181-0.365,0.647-0.485,0.62  c-0.312-0.07-0.741-0.301-0.828-0.564c-0.454-1.381-0.817-2.793-1.211-4.192c-0.566-2.007-1.153-4.01-1.672-6.028  c-0.074-0.287,0.184-0.661,0.288-0.994c0.296,0.168,0.789,0.278,0.859,0.514C20.943,68.604,21.922,72.107,22.959,75.765z"/><path fill-rule="evenodd" clip-rule="evenodd" d="M94.398,75.808c-0.102,0.136-0.326,0.603-0.45,0.576  c-0.312-0.064-0.744-0.294-0.831-0.556c-0.456-1.381-0.816-2.79-1.212-4.189c-0.555-1.959-1.144-3.909-1.632-5.884  c-0.086-0.344,0.246-0.791,0.386-1.192c0.281,0.277,0.723,0.506,0.82,0.837c0.954,3.255,1.854,6.525,2.768,9.791  C94.286,75.33,94.317,75.473,94.398,75.808z"/><path fill-rule="evenodd" clip-rule="evenodd" d="M10.55,65.185c-0.18,0.64-0.31,1.107-0.442,1.574  c-0.817,2.896-1.61,5.8-2.482,8.68c-0.118,0.388-0.636,0.652-0.968,0.977c-0.087-0.42-0.335-0.88-0.237-1.246  c0.861-3.237,1.763-6.462,2.713-9.674c0.107-0.363,0.582-0.62,0.885-0.927C10.215,64.797,10.412,65.024,10.55,65.185z"/><path fill-rule="evenodd" clip-rule="evenodd" d="M75.447,73.948c-0.326-2.483-1.005-4.99-0.84-7.44  c0.09-1.332,1.609-2.568,2.486-3.847c0.127,0.078,0.256,0.157,0.385,0.234c-0.626,3.67-1.249,7.34-1.874,11.008  C75.553,73.918,75.501,73.933,75.447,73.948z"/><path fill-rule="evenodd" clip-rule="evenodd" d="M25.077,74.577c-0.778-3.801-1.55-7.563-2.286-11.153  c2.028,1.241,3.288,3.765,2.962,6.303C25.543,71.352,25.302,72.973,25.077,74.577z"/><path fill-rule="evenodd" clip-rule="evenodd" d="M38.225,45.192c-1.227-0.245-2.432,0.521-2.969-0.979  c-0.482-1.348-0.179-1.96,1.711-3.314c0.841,0.479,1.628,0.927,2.708,1.543c-0.729,0.315-1.211,0.526-1.698,0.736  C38.049,43.758,38.122,44.354,38.225,45.192z"/><path fill-rule="evenodd" clip-rule="evenodd" d="M59.489,39.767c0.379,0.209,0.756,0.418,1.18,0.654  c-0.129,0.79-0.258,1.591-0.427,2.627c-0.877-0.458-1.7-0.889-2.608-1.365c0.739-0.519,1.405-0.988,2.072-1.456  C59.634,40.073,59.562,39.921,59.489,39.767z"/><path fill-rule="evenodd" clip-rule="evenodd" d="M54.375,35.683c0.44,1.067,0.84,1.751,0.979,2.486  c0.08,0.424-0.146,1.031-0.448,1.36c-0.178,0.195-0.923,0.167-1.143-0.044c-0.282-0.269-0.471-0.862-0.385-1.244  C53.554,37.471,53.943,36.748,54.375,35.683z"/><path fill-rule="evenodd" clip-rule="evenodd" d="M46.798,36.078c0.29,0.752,0.674,1.487,0.829,2.266  c0.073,0.369-0.198,0.921-0.491,1.208c-0.186,0.184-0.843,0.182-1.032-0.001c-0.295-0.284-0.577-0.836-0.502-1.202  c0.159-0.787,0.548-1.528,0.844-2.289C46.563,36.066,46.681,36.072,46.798,36.078z"/><path fill-rule="evenodd" clip-rule="evenodd" d="M35.289,46.908c0.52-0.467,0.976-1.201,1.574-1.342  c1.352-0.321,1.085,0.962,1.547,1.779c-1.051,0-1.901,0-2.751,0C35.534,47.2,35.412,47.053,35.289,46.908z"/><path fill-rule="evenodd" clip-rule="evenodd" d="M62.417,38.777c-0.771,0.55-1.214,1.11-1.589,1.068  c-0.415-0.047-1.047-0.634-1.064-1.01c-0.016-0.363,0.596-1.005,0.994-1.062C61.145,37.72,61.613,38.259,62.417,38.777z"/><text x="0" y="115" fill="#000000" font-size="5px" font-weight="bold" font-family="'Helvetica Neue', Helvetica, Arial-Unicode, Arial, Sans-serif">Created by Ealancheliyan s</text><text x="0" y="120" fill="#000000" font-size="5px" font-weight="bold" font-family="'Helvetica Neue', Helvetica, Arial-Unicode, Arial, Sans-serif">from the Noun Project</text></svg>